<mxfile host="app.diagrams.net" modified="2024-06-24T20:07:54.703Z" agent="Mozilla/5.0 (Windows NT 10.0; Win64; x64) AppleWebKit/537.36 (KHTML, like Gecko) Chrome/126.0.0.0 Safari/537.36" etag="jfFOvxHPNK6kaBvrKZdg" version="24.6.2" type="device">
  <diagram name="Page-1" id="oGC9P6uwxd4n3KdFsKLH">
    <mxGraphModel dx="1244" dy="2314" grid="1" gridSize="10" guides="1" tooltips="1" connect="1" arrows="1" fold="1" page="1" pageScale="1" pageWidth="827" pageHeight="1169" math="0" shadow="0">
      <root>
        <mxCell id="0" />
        <mxCell id="1" parent="0" />
        <mxCell id="xJIblUilVmhUHwMotjAO-3" value="INV_NUM" style="whiteSpace=wrap;html=1;labelBackgroundColor=none;textShadow=0;labelBorderColor=none;fillColor=#ffe6cc;strokeColor=#d79b00;fontStyle=4" vertex="1" parent="1">
          <mxGeometry x="120" y="-960" width="90" height="40" as="geometry" />
        </mxCell>
        <mxCell id="xJIblUilVmhUHwMotjAO-4" value="PROD_NU&#xa;M" style="whiteSpace=wrap;html=1;fillColor=#ffe6cc;strokeColor=#d79b00;fontStyle=4" vertex="1" parent="1">
          <mxGeometry x="30" y="-960" width="90" height="40" as="geometry" />
        </mxCell>
        <mxCell id="xJIblUilVmhUHwMotjAO-5" value="SALE_DAT&#xa;E" style="whiteSpace=wrap;html=1;fillColor=#dae8fc;strokeColor=#6c8ebf;fontStyle=0" vertex="1" parent="1">
          <mxGeometry x="210" y="-960" width="90" height="40" as="geometry" />
        </mxCell>
        <mxCell id="xJIblUilVmhUHwMotjAO-6" value="PROD_LA&#xa;BEL" style="whiteSpace=wrap;html=1;fillColor=#dae8fc;strokeColor=#6c8ebf;fontStyle=0;align=center;" vertex="1" parent="1">
          <mxGeometry x="300" y="-960" width="90" height="40" as="geometry" />
        </mxCell>
        <mxCell id="xJIblUilVmhUHwMotjAO-7" value="VEND_CO&#xa;DE" style="whiteSpace=wrap;html=1;fillColor=#dae8fc;strokeColor=#6c8ebf;" vertex="1" parent="1">
          <mxGeometry x="390" y="-960" width="90" height="40" as="geometry" />
        </mxCell>
        <mxCell id="xJIblUilVmhUHwMotjAO-8" value="VEND_NA&#xa;ME" style="whiteSpace=wrap;html=1;fillColor=#dae8fc;strokeColor=#6c8ebf;" vertex="1" parent="1">
          <mxGeometry x="480" y="-960" width="90" height="40" as="geometry" />
        </mxCell>
        <mxCell id="xJIblUilVmhUHwMotjAO-9" value="QUANT_S&#xa;OLD" style="whiteSpace=wrap;html=1;fillColor=#dae8fc;strokeColor=#6c8ebf;" vertex="1" parent="1">
          <mxGeometry x="570" y="-960" width="90" height="40" as="geometry" />
        </mxCell>
        <mxCell id="xJIblUilVmhUHwMotjAO-10" value="PROD_PRI&#xa;CE" style="whiteSpace=wrap;html=1;fillColor=#dae8fc;strokeColor=#6c8ebf;" vertex="1" parent="1">
          <mxGeometry x="660" y="-960" width="90" height="40" as="geometry" />
        </mxCell>
        <mxCell id="xJIblUilVmhUHwMotjAO-76" value="" style="endArrow=none;html=1;rounded=0;" edge="1" parent="1">
          <mxGeometry width="50" height="50" relative="1" as="geometry">
            <mxPoint x="70" y="-960" as="sourcePoint" />
            <mxPoint x="110" y="-1000" as="targetPoint" />
            <Array as="points">
              <mxPoint x="70" y="-1000" />
            </Array>
          </mxGeometry>
        </mxCell>
        <mxCell id="xJIblUilVmhUHwMotjAO-77" value="" style="endArrow=none;html=1;rounded=0;" edge="1" parent="1">
          <mxGeometry width="50" height="50" relative="1" as="geometry">
            <mxPoint x="110" y="-1000" as="sourcePoint" />
            <mxPoint x="160" y="-960" as="targetPoint" />
            <Array as="points">
              <mxPoint x="160" y="-1000" />
            </Array>
          </mxGeometry>
        </mxCell>
        <mxCell id="xJIblUilVmhUHwMotjAO-78" value="" style="endArrow=none;html=1;rounded=0;" edge="1" parent="1">
          <mxGeometry width="50" height="50" relative="1" as="geometry">
            <mxPoint x="110" y="-1000" as="sourcePoint" />
            <mxPoint x="110" y="-1040" as="targetPoint" />
          </mxGeometry>
        </mxCell>
        <mxCell id="xJIblUilVmhUHwMotjAO-79" value="" style="endArrow=none;html=1;rounded=0;" edge="1" parent="1">
          <mxGeometry width="50" height="50" relative="1" as="geometry">
            <mxPoint x="110" y="-1040" as="sourcePoint" />
            <mxPoint x="710" y="-1040" as="targetPoint" />
          </mxGeometry>
        </mxCell>
        <mxCell id="xJIblUilVmhUHwMotjAO-80" value="" style="endArrow=classic;html=1;rounded=0;" edge="1" parent="1">
          <mxGeometry width="50" height="50" relative="1" as="geometry">
            <mxPoint x="255" y="-1040" as="sourcePoint" />
            <mxPoint x="254.58000000000004" y="-960" as="targetPoint" />
          </mxGeometry>
        </mxCell>
        <mxCell id="xJIblUilVmhUHwMotjAO-81" value="" style="endArrow=classic;html=1;rounded=0;" edge="1" parent="1">
          <mxGeometry width="50" height="50" relative="1" as="geometry">
            <mxPoint x="350.42" y="-1040" as="sourcePoint" />
            <mxPoint x="350.00000000000006" y="-960" as="targetPoint" />
          </mxGeometry>
        </mxCell>
        <mxCell id="xJIblUilVmhUHwMotjAO-82" value="" style="endArrow=classic;html=1;rounded=0;" edge="1" parent="1">
          <mxGeometry width="50" height="50" relative="1" as="geometry">
            <mxPoint x="435" y="-1040" as="sourcePoint" />
            <mxPoint x="434.58000000000004" y="-960" as="targetPoint" />
          </mxGeometry>
        </mxCell>
        <mxCell id="xJIblUilVmhUHwMotjAO-83" value="" style="endArrow=classic;html=1;rounded=0;" edge="1" parent="1">
          <mxGeometry width="50" height="50" relative="1" as="geometry">
            <mxPoint x="525" y="-1040" as="sourcePoint" />
            <mxPoint x="524.58" y="-960" as="targetPoint" />
          </mxGeometry>
        </mxCell>
        <mxCell id="xJIblUilVmhUHwMotjAO-84" value="" style="endArrow=classic;html=1;rounded=0;" edge="1" parent="1">
          <mxGeometry width="50" height="50" relative="1" as="geometry">
            <mxPoint x="615" y="-1040" as="sourcePoint" />
            <mxPoint x="614.58" y="-960" as="targetPoint" />
          </mxGeometry>
        </mxCell>
        <mxCell id="xJIblUilVmhUHwMotjAO-85" value="" style="endArrow=classic;html=1;rounded=0;" edge="1" parent="1">
          <mxGeometry width="50" height="50" relative="1" as="geometry">
            <mxPoint x="710.4200000000001" y="-1040" as="sourcePoint" />
            <mxPoint x="710" y="-960" as="targetPoint" />
          </mxGeometry>
        </mxCell>
        <mxCell id="xJIblUilVmhUHwMotjAO-86" value="" style="endArrow=none;html=1;rounded=0;entryX=0.444;entryY=1.025;entryDx=0;entryDy=0;entryPerimeter=0;" edge="1" parent="1" target="xJIblUilVmhUHwMotjAO-4">
          <mxGeometry width="50" height="50" relative="1" as="geometry">
            <mxPoint x="710" y="-840" as="sourcePoint" />
            <mxPoint x="160" y="-880" as="targetPoint" />
            <Array as="points">
              <mxPoint x="160" y="-840" />
              <mxPoint x="70" y="-840" />
            </Array>
          </mxGeometry>
        </mxCell>
        <mxCell id="xJIblUilVmhUHwMotjAO-88" value="" style="endArrow=none;html=1;rounded=0;" edge="1" parent="1">
          <mxGeometry width="50" height="50" relative="1" as="geometry">
            <mxPoint x="470" y="-880" as="sourcePoint" />
            <mxPoint x="430" y="-920" as="targetPoint" />
            <Array as="points">
              <mxPoint x="430" y="-880" />
            </Array>
          </mxGeometry>
        </mxCell>
        <mxCell id="xJIblUilVmhUHwMotjAO-89" value="" style="endArrow=classic;html=1;rounded=0;entryX=0.333;entryY=1.067;entryDx=0;entryDy=0;entryPerimeter=0;" edge="1" parent="1">
          <mxGeometry width="50" height="50" relative="1" as="geometry">
            <mxPoint x="470" y="-880" as="sourcePoint" />
            <mxPoint x="519.97" y="-920.0000000000002" as="targetPoint" />
            <Array as="points">
              <mxPoint x="520" y="-880" />
            </Array>
          </mxGeometry>
        </mxCell>
        <mxCell id="xJIblUilVmhUHwMotjAO-90" value="" style="endArrow=classic;html=1;rounded=0;" edge="1" parent="1">
          <mxGeometry width="50" height="50" relative="1" as="geometry">
            <mxPoint x="350" y="-840" as="sourcePoint" />
            <mxPoint x="350" y="-920" as="targetPoint" />
            <Array as="points">
              <mxPoint x="350" y="-880" />
            </Array>
          </mxGeometry>
        </mxCell>
        <mxCell id="xJIblUilVmhUHwMotjAO-91" value="" style="endArrow=classic;html=1;rounded=0;" edge="1" parent="1">
          <mxGeometry width="50" height="50" relative="1" as="geometry">
            <mxPoint x="710" y="-840" as="sourcePoint" />
            <mxPoint x="710" y="-920" as="targetPoint" />
            <Array as="points">
              <mxPoint x="710" y="-880" />
            </Array>
          </mxGeometry>
        </mxCell>
        <mxCell id="xJIblUilVmhUHwMotjAO-150" value="INV_NUM" style="whiteSpace=wrap;html=1;labelBackgroundColor=none;textShadow=0;labelBorderColor=none;fillColor=#ffe6cc;strokeColor=#d79b00;fontStyle=4" vertex="1" parent="1">
          <mxGeometry x="30" y="-530" width="90" height="40" as="geometry" />
        </mxCell>
        <mxCell id="xJIblUilVmhUHwMotjAO-151" value="PROD_NU&#xa;M" style="whiteSpace=wrap;html=1;fillColor=#ffe6cc;strokeColor=#d79b00;fontStyle=4" vertex="1" parent="1">
          <mxGeometry x="30" y="-660" width="90" height="40" as="geometry" />
        </mxCell>
        <mxCell id="xJIblUilVmhUHwMotjAO-152" value="INV_NUM" style="whiteSpace=wrap;html=1;labelBackgroundColor=none;textShadow=0;labelBorderColor=none;fillColor=#ffe6cc;strokeColor=#d79b00;fontStyle=4" vertex="1" parent="1">
          <mxGeometry x="30" y="-350" width="90" height="40" as="geometry" />
        </mxCell>
        <mxCell id="xJIblUilVmhUHwMotjAO-153" value="PROD_NU&#xa;M" style="whiteSpace=wrap;html=1;fillColor=#ffe6cc;strokeColor=#d79b00;fontStyle=4" vertex="1" parent="1">
          <mxGeometry x="120" y="-350" width="90" height="40" as="geometry" />
        </mxCell>
        <mxCell id="xJIblUilVmhUHwMotjAO-173" value="SALE_DAT&#xa;E" style="whiteSpace=wrap;html=1;fillColor=#dae8fc;strokeColor=#6c8ebf;fontStyle=0" vertex="1" parent="1">
          <mxGeometry x="120" y="-530" width="90" height="40" as="geometry" />
        </mxCell>
        <mxCell id="xJIblUilVmhUHwMotjAO-175" value="VEND_CO&#xa;DE" style="whiteSpace=wrap;html=1;fillColor=#dae8fc;strokeColor=#6c8ebf;" vertex="1" parent="1">
          <mxGeometry x="210" y="-350" width="90" height="40" as="geometry" />
        </mxCell>
        <mxCell id="xJIblUilVmhUHwMotjAO-176" value="VEND_NA&#xa;ME" style="whiteSpace=wrap;html=1;fillColor=#dae8fc;strokeColor=#6c8ebf;" vertex="1" parent="1">
          <mxGeometry x="300" y="-350" width="90" height="40" as="geometry" />
        </mxCell>
        <mxCell id="xJIblUilVmhUHwMotjAO-177" value="QUANT_S&#xa;OLD" style="whiteSpace=wrap;html=1;fillColor=#dae8fc;strokeColor=#6c8ebf;" vertex="1" parent="1">
          <mxGeometry x="390" y="-350" width="90" height="40" as="geometry" />
        </mxCell>
        <mxCell id="xJIblUilVmhUHwMotjAO-178" value="PROD_PRI&#xa;CE" style="whiteSpace=wrap;html=1;fillColor=#dae8fc;strokeColor=#6c8ebf;" vertex="1" parent="1">
          <mxGeometry x="210" y="-660" width="90" height="40" as="geometry" />
        </mxCell>
        <mxCell id="xJIblUilVmhUHwMotjAO-179" value="" style="endArrow=none;html=1;rounded=0;" edge="1" parent="1">
          <mxGeometry width="50" height="50" relative="1" as="geometry">
            <mxPoint x="210" y="-880" as="sourcePoint" />
            <mxPoint x="160" y="-920" as="targetPoint" />
            <Array as="points">
              <mxPoint x="160" y="-880" />
            </Array>
          </mxGeometry>
        </mxCell>
        <mxCell id="xJIblUilVmhUHwMotjAO-180" value="" style="endArrow=classic;html=1;rounded=0;entryX=0.333;entryY=1.067;entryDx=0;entryDy=0;entryPerimeter=0;" edge="1" parent="1">
          <mxGeometry width="50" height="50" relative="1" as="geometry">
            <mxPoint x="210" y="-880" as="sourcePoint" />
            <mxPoint x="259.97" y="-920.0000000000002" as="targetPoint" />
            <Array as="points">
              <mxPoint x="260" y="-880" />
            </Array>
          </mxGeometry>
        </mxCell>
        <mxCell id="xJIblUilVmhUHwMotjAO-181" value="PROD_LA&#xa;BEL" style="whiteSpace=wrap;html=1;fillColor=#dae8fc;strokeColor=#6c8ebf;fontStyle=0;align=center;" vertex="1" parent="1">
          <mxGeometry x="120" y="-660" width="90" height="40" as="geometry" />
        </mxCell>
        <mxCell id="xJIblUilVmhUHwMotjAO-182" value="Table Name: Products" style="text;html=1;align=center;verticalAlign=middle;resizable=0;points=[];autosize=1;strokeColor=none;fillColor=none;" vertex="1" parent="1">
          <mxGeometry x="30" y="-730" width="140" height="30" as="geometry" />
        </mxCell>
        <mxCell id="xJIblUilVmhUHwMotjAO-183" value="Table Name:&amp;nbsp;Invoices" style="text;html=1;align=center;verticalAlign=middle;resizable=0;points=[];autosize=1;strokeColor=none;fillColor=none;" vertex="1" parent="1">
          <mxGeometry x="30" y="-600" width="140" height="30" as="geometry" />
        </mxCell>
        <mxCell id="xJIblUilVmhUHwMotjAO-184" value="Table Name:&amp;nbsp;Sales" style="text;html=1;align=center;verticalAlign=middle;resizable=0;points=[];autosize=1;strokeColor=none;fillColor=none;" vertex="1" parent="1">
          <mxGeometry x="30" y="-470" width="120" height="30" as="geometry" />
        </mxCell>
        <mxCell id="xJIblUilVmhUHwMotjAO-186" value="● Using the INVOICE table given below, draw its dependency diagram and&#xa;identify all dependencies (including transitive and partial dependencies).&#xa;You can assume that the table does not contain any repeating groups and&#xa;that an invoice number references more than one product. Hint: This table&#xa;uses a composite primary key." style="text;whiteSpace=wrap;" vertex="1" parent="1">
          <mxGeometry x="10" y="-1160" width="430" height="100" as="geometry" />
        </mxCell>
        <mxCell id="xJIblUilVmhUHwMotjAO-189" value="" style="edgeStyle=none;orthogonalLoop=1;jettySize=auto;html=1;rounded=0;entryX=0.567;entryY=0.008;entryDx=0;entryDy=0;entryPerimeter=0;" edge="1" parent="1" target="xJIblUilVmhUHwMotjAO-178">
          <mxGeometry width="100" relative="1" as="geometry">
            <mxPoint x="70" y="-660" as="sourcePoint" />
            <mxPoint x="270" y="-700" as="targetPoint" />
            <Array as="points">
              <mxPoint x="70" y="-700" />
              <mxPoint x="260" y="-700" />
            </Array>
          </mxGeometry>
        </mxCell>
        <mxCell id="xJIblUilVmhUHwMotjAO-191" value="" style="edgeStyle=none;orthogonalLoop=1;jettySize=auto;html=1;rounded=0;" edge="1" parent="1">
          <mxGeometry width="100" relative="1" as="geometry">
            <mxPoint x="169.17" y="-700" as="sourcePoint" />
            <mxPoint x="169.17" y="-660" as="targetPoint" />
            <Array as="points" />
          </mxGeometry>
        </mxCell>
        <mxCell id="xJIblUilVmhUHwMotjAO-192" value="" style="edgeStyle=none;orthogonalLoop=1;jettySize=auto;html=1;rounded=0;entryX=0.548;entryY=0.025;entryDx=0;entryDy=0;entryPerimeter=0;" edge="1" parent="1" target="xJIblUilVmhUHwMotjAO-173">
          <mxGeometry width="100" relative="1" as="geometry">
            <mxPoint x="70" y="-530" as="sourcePoint" />
            <mxPoint x="170" y="-534" as="targetPoint" />
            <Array as="points">
              <mxPoint x="70" y="-570" />
              <mxPoint x="170" y="-570" />
            </Array>
          </mxGeometry>
        </mxCell>
        <mxCell id="xJIblUilVmhUHwMotjAO-193" value="" style="endArrow=none;html=1;rounded=0;" edge="1" parent="1">
          <mxGeometry width="50" height="50" relative="1" as="geometry">
            <mxPoint x="70" y="-350" as="sourcePoint" />
            <mxPoint x="110" y="-390" as="targetPoint" />
            <Array as="points">
              <mxPoint x="70" y="-390" />
            </Array>
          </mxGeometry>
        </mxCell>
        <mxCell id="xJIblUilVmhUHwMotjAO-194" value="" style="endArrow=none;html=1;rounded=0;" edge="1" parent="1">
          <mxGeometry width="50" height="50" relative="1" as="geometry">
            <mxPoint x="110" y="-390" as="sourcePoint" />
            <mxPoint x="160" y="-350" as="targetPoint" />
            <Array as="points">
              <mxPoint x="160" y="-390" />
            </Array>
          </mxGeometry>
        </mxCell>
        <mxCell id="xJIblUilVmhUHwMotjAO-195" value="" style="endArrow=none;html=1;rounded=0;" edge="1" parent="1">
          <mxGeometry width="50" height="50" relative="1" as="geometry">
            <mxPoint x="110" y="-390" as="sourcePoint" />
            <mxPoint x="110" y="-430" as="targetPoint" />
          </mxGeometry>
        </mxCell>
        <mxCell id="xJIblUilVmhUHwMotjAO-196" value="" style="endArrow=none;html=1;rounded=0;" edge="1" parent="1">
          <mxGeometry width="50" height="50" relative="1" as="geometry">
            <mxPoint x="110" y="-430" as="sourcePoint" />
            <mxPoint x="440" y="-430" as="targetPoint" />
          </mxGeometry>
        </mxCell>
        <mxCell id="xJIblUilVmhUHwMotjAO-197" value="" style="endArrow=classic;html=1;rounded=0;" edge="1" parent="1">
          <mxGeometry width="50" height="50" relative="1" as="geometry">
            <mxPoint x="255" y="-430" as="sourcePoint" />
            <mxPoint x="254.58000000000004" y="-350" as="targetPoint" />
          </mxGeometry>
        </mxCell>
        <mxCell id="xJIblUilVmhUHwMotjAO-198" value="" style="endArrow=classic;html=1;rounded=0;" edge="1" parent="1">
          <mxGeometry width="50" height="50" relative="1" as="geometry">
            <mxPoint x="345" y="-430" as="sourcePoint" />
            <mxPoint x="344.58000000000004" y="-350" as="targetPoint" />
          </mxGeometry>
        </mxCell>
        <mxCell id="xJIblUilVmhUHwMotjAO-199" value="" style="endArrow=classic;html=1;rounded=0;" edge="1" parent="1">
          <mxGeometry width="50" height="50" relative="1" as="geometry">
            <mxPoint x="440.41999999999996" y="-430" as="sourcePoint" />
            <mxPoint x="440" y="-350" as="targetPoint" />
          </mxGeometry>
        </mxCell>
        <mxCell id="xJIblUilVmhUHwMotjAO-200" value="" style="endArrow=none;html=1;rounded=0;" edge="1" parent="1">
          <mxGeometry width="50" height="50" relative="1" as="geometry">
            <mxPoint x="290" y="-270" as="sourcePoint" />
            <mxPoint x="250" y="-310" as="targetPoint" />
            <Array as="points">
              <mxPoint x="250" y="-270" />
            </Array>
          </mxGeometry>
        </mxCell>
        <mxCell id="xJIblUilVmhUHwMotjAO-201" value="" style="endArrow=classic;html=1;rounded=0;entryX=0.333;entryY=1.067;entryDx=0;entryDy=0;entryPerimeter=0;" edge="1" parent="1">
          <mxGeometry width="50" height="50" relative="1" as="geometry">
            <mxPoint x="290" y="-270" as="sourcePoint" />
            <mxPoint x="339.97" y="-310.0000000000002" as="targetPoint" />
            <Array as="points">
              <mxPoint x="340" y="-270" />
            </Array>
          </mxGeometry>
        </mxCell>
        <mxCell id="xJIblUilVmhUHwMotjAO-206" value="● Using the answer to the above question, remove all partial dependencies&#xa;and draw the new dependency diagrams. Identify the normal forms for&#xa;each table structure you created." style="text;whiteSpace=wrap;html=1;" vertex="1" parent="1">
          <mxGeometry x="10" y="-800" width="430" height="70" as="geometry" />
        </mxCell>
        <mxCell id="xJIblUilVmhUHwMotjAO-207" value="All 3 tables are 2NF" style="text;html=1;align=center;verticalAlign=middle;resizable=0;points=[];autosize=1;strokeColor=none;fillColor=none;fontSize=21;" vertex="1" parent="1">
          <mxGeometry x="400" y="-600" width="210" height="40" as="geometry" />
        </mxCell>
        <mxCell id="xJIblUilVmhUHwMotjAO-208" value="● Using the answer to the above question, remove all transitive dependencies&#xa;and draw the new dependency diagrams. Identify the normal forms for&#xa;each table structure you created." style="text;whiteSpace=wrap;" vertex="1" parent="1">
          <mxGeometry x="10" y="-250" width="450" height="70" as="geometry" />
        </mxCell>
        <mxCell id="xJIblUilVmhUHwMotjAO-209" value="INV_NUM" style="whiteSpace=wrap;html=1;labelBackgroundColor=none;textShadow=0;labelBorderColor=none;fillColor=#ffe6cc;strokeColor=#d79b00;fontStyle=4" vertex="1" parent="1">
          <mxGeometry x="30" width="90" height="40" as="geometry" />
        </mxCell>
        <mxCell id="xJIblUilVmhUHwMotjAO-210" value="PROD_NU&#xa;M" style="whiteSpace=wrap;html=1;fillColor=#ffe6cc;strokeColor=#d79b00;fontStyle=4" vertex="1" parent="1">
          <mxGeometry x="30" y="-130" width="90" height="40" as="geometry" />
        </mxCell>
        <mxCell id="xJIblUilVmhUHwMotjAO-211" value="INV_NUM" style="whiteSpace=wrap;html=1;labelBackgroundColor=none;textShadow=0;labelBorderColor=none;fillColor=#ffe6cc;strokeColor=#d79b00;fontStyle=4" vertex="1" parent="1">
          <mxGeometry x="30" y="180" width="90" height="40" as="geometry" />
        </mxCell>
        <mxCell id="xJIblUilVmhUHwMotjAO-212" value="PROD_NU&#xa;M" style="whiteSpace=wrap;html=1;fillColor=#ffe6cc;strokeColor=#d79b00;fontStyle=4" vertex="1" parent="1">
          <mxGeometry x="120" y="180" width="90" height="40" as="geometry" />
        </mxCell>
        <mxCell id="xJIblUilVmhUHwMotjAO-213" value="SALE_DAT&#xa;E" style="whiteSpace=wrap;html=1;fillColor=#dae8fc;strokeColor=#6c8ebf;fontStyle=0" vertex="1" parent="1">
          <mxGeometry x="120" width="90" height="40" as="geometry" />
        </mxCell>
        <mxCell id="xJIblUilVmhUHwMotjAO-214" value="VEND_CO&#xa;DE" style="whiteSpace=wrap;html=1;fillColor=#ffe6cc;strokeColor=#d79b00;fontStyle=4" vertex="1" parent="1">
          <mxGeometry x="30" y="310" width="90" height="40" as="geometry" />
        </mxCell>
        <mxCell id="xJIblUilVmhUHwMotjAO-215" value="VEND_NA&#xa;ME" style="whiteSpace=wrap;html=1;fillColor=#dae8fc;strokeColor=#6c8ebf;" vertex="1" parent="1">
          <mxGeometry x="120" y="310" width="90" height="40" as="geometry" />
        </mxCell>
        <mxCell id="xJIblUilVmhUHwMotjAO-216" value="QUANT_S&#xa;OLD" style="whiteSpace=wrap;html=1;fillColor=#dae8fc;strokeColor=#6c8ebf;" vertex="1" parent="1">
          <mxGeometry x="210" y="180" width="90" height="40" as="geometry" />
        </mxCell>
        <mxCell id="xJIblUilVmhUHwMotjAO-217" value="PROD_PRI&#xa;CE" style="whiteSpace=wrap;html=1;fillColor=#dae8fc;strokeColor=#6c8ebf;" vertex="1" parent="1">
          <mxGeometry x="210" y="-130" width="90" height="40" as="geometry" />
        </mxCell>
        <mxCell id="xJIblUilVmhUHwMotjAO-218" value="PROD_LA&#xa;BEL" style="whiteSpace=wrap;html=1;fillColor=#dae8fc;strokeColor=#6c8ebf;fontStyle=0;align=center;" vertex="1" parent="1">
          <mxGeometry x="120" y="-130" width="90" height="40" as="geometry" />
        </mxCell>
        <mxCell id="xJIblUilVmhUHwMotjAO-219" value="Table Name:&amp;nbsp;Invoices" style="text;html=1;align=center;verticalAlign=middle;resizable=0;points=[];autosize=1;strokeColor=none;fillColor=none;" vertex="1" parent="1">
          <mxGeometry x="30" y="-70" width="140" height="30" as="geometry" />
        </mxCell>
        <mxCell id="xJIblUilVmhUHwMotjAO-220" value="Table Name:&amp;nbsp;Sales" style="text;html=1;align=center;verticalAlign=middle;resizable=0;points=[];autosize=1;strokeColor=none;fillColor=none;" vertex="1" parent="1">
          <mxGeometry x="30" y="60" width="120" height="30" as="geometry" />
        </mxCell>
        <mxCell id="xJIblUilVmhUHwMotjAO-221" value="" style="edgeStyle=none;orthogonalLoop=1;jettySize=auto;html=1;rounded=0;entryX=0.557;entryY=0.001;entryDx=0;entryDy=0;entryPerimeter=0;" edge="1" parent="1" target="xJIblUilVmhUHwMotjAO-217">
          <mxGeometry width="100" relative="1" as="geometry">
            <mxPoint x="70" y="-130" as="sourcePoint" />
            <mxPoint x="270" y="-170" as="targetPoint" />
            <Array as="points">
              <mxPoint x="70" y="-170" />
              <mxPoint x="260" y="-170" />
            </Array>
          </mxGeometry>
        </mxCell>
        <mxCell id="xJIblUilVmhUHwMotjAO-222" value="" style="edgeStyle=none;orthogonalLoop=1;jettySize=auto;html=1;rounded=0;" edge="1" parent="1">
          <mxGeometry width="100" relative="1" as="geometry">
            <mxPoint x="169.17" y="-170" as="sourcePoint" />
            <mxPoint x="169.17" y="-130" as="targetPoint" />
            <Array as="points" />
          </mxGeometry>
        </mxCell>
        <mxCell id="xJIblUilVmhUHwMotjAO-223" value="" style="edgeStyle=none;orthogonalLoop=1;jettySize=auto;html=1;rounded=0;entryX=0.56;entryY=-0.026;entryDx=0;entryDy=0;entryPerimeter=0;" edge="1" parent="1" target="xJIblUilVmhUHwMotjAO-213">
          <mxGeometry width="100" relative="1" as="geometry">
            <mxPoint x="70" as="sourcePoint" />
            <mxPoint x="170" y="-4" as="targetPoint" />
            <Array as="points">
              <mxPoint x="70" y="-40" />
              <mxPoint x="170" y="-40" />
            </Array>
          </mxGeometry>
        </mxCell>
        <mxCell id="xJIblUilVmhUHwMotjAO-224" value="" style="endArrow=none;html=1;rounded=0;" edge="1" parent="1">
          <mxGeometry width="50" height="50" relative="1" as="geometry">
            <mxPoint x="70" y="180" as="sourcePoint" />
            <mxPoint x="110" y="140" as="targetPoint" />
            <Array as="points">
              <mxPoint x="70" y="140" />
            </Array>
          </mxGeometry>
        </mxCell>
        <mxCell id="xJIblUilVmhUHwMotjAO-225" value="" style="endArrow=none;html=1;rounded=0;" edge="1" parent="1">
          <mxGeometry width="50" height="50" relative="1" as="geometry">
            <mxPoint x="110" y="140" as="sourcePoint" />
            <mxPoint x="160" y="180" as="targetPoint" />
            <Array as="points">
              <mxPoint x="160" y="140" />
            </Array>
          </mxGeometry>
        </mxCell>
        <mxCell id="xJIblUilVmhUHwMotjAO-226" value="" style="endArrow=none;html=1;rounded=0;" edge="1" parent="1">
          <mxGeometry width="50" height="50" relative="1" as="geometry">
            <mxPoint x="110" y="140" as="sourcePoint" />
            <mxPoint x="110" y="100" as="targetPoint" />
          </mxGeometry>
        </mxCell>
        <mxCell id="xJIblUilVmhUHwMotjAO-227" value="" style="endArrow=none;html=1;rounded=0;" edge="1" parent="1">
          <mxGeometry width="50" height="50" relative="1" as="geometry">
            <mxPoint x="110" y="100" as="sourcePoint" />
            <mxPoint x="260" y="100" as="targetPoint" />
          </mxGeometry>
        </mxCell>
        <mxCell id="xJIblUilVmhUHwMotjAO-228" value="" style="endArrow=classic;html=1;rounded=0;" edge="1" parent="1">
          <mxGeometry width="50" height="50" relative="1" as="geometry">
            <mxPoint x="260.42" y="100" as="sourcePoint" />
            <mxPoint x="260.00000000000006" y="180" as="targetPoint" />
          </mxGeometry>
        </mxCell>
        <mxCell id="xJIblUilVmhUHwMotjAO-233" value="All 4 tables are 3NF" style="text;html=1;align=center;verticalAlign=middle;resizable=0;points=[];autosize=1;strokeColor=none;fillColor=none;fontSize=21;" vertex="1" parent="1">
          <mxGeometry x="400" y="-70" width="210" height="40" as="geometry" />
        </mxCell>
        <mxCell id="xJIblUilVmhUHwMotjAO-237" value="Table Name: Vendors" style="text;html=1;align=center;verticalAlign=middle;resizable=0;points=[];autosize=1;strokeColor=none;fillColor=none;" vertex="1" parent="1">
          <mxGeometry x="30" y="240" width="140" height="30" as="geometry" />
        </mxCell>
        <mxCell id="xJIblUilVmhUHwMotjAO-238" value="" style="edgeStyle=none;orthogonalLoop=1;jettySize=auto;html=1;rounded=0;" edge="1" parent="1">
          <mxGeometry width="100" relative="1" as="geometry">
            <mxPoint x="70" y="310" as="sourcePoint" />
            <mxPoint x="170" y="310" as="targetPoint" />
            <Array as="points">
              <mxPoint x="70" y="270" />
              <mxPoint x="170" y="270" />
            </Array>
          </mxGeometry>
        </mxCell>
      </root>
    </mxGraphModel>
  </diagram>
</mxfile>
